<svg width="24" height="24" viewBox="0 0 24 24" fill="none" xmlns="http://www.w3.org/2000/svg">
<path d="M20.0238 7.71327L14.7801 2.46963C14.7726 2.46213 14.7645 2.45554 14.7567 2.44839C14.7466 2.4391 14.7367 2.42949 14.7261 2.42075C14.7191 2.41498 14.7115 2.40994 14.7043 2.4044C14.692 2.39502 14.6799 2.3855 14.6671 2.37685C14.6612 2.37295 14.6551 2.36971 14.6492 2.366C14.6343 2.35661 14.6194 2.34728 14.6039 2.3389C14.5997 2.33666 14.5953 2.33492 14.5911 2.33276C14.5735 2.3237 14.5557 2.315 14.5374 2.30736C14.5345 2.30617 14.5315 2.30529 14.5286 2.30415C14.5089 2.29623 14.4889 2.28882 14.4684 2.28259C14.4654 2.28167 14.4623 2.28112 14.4594 2.28025C14.439 2.27435 14.4185 2.2689 14.3974 2.26469C14.3907 2.26336 14.3838 2.26277 14.3771 2.26163C14.3597 2.2586 14.3424 2.25554 14.3247 2.2538C14.2998 2.25127 14.2748 2.25 14.2498 2.25H5.24902C4.85134 2.25045 4.47007 2.40864 4.18887 2.68984C3.90766 2.97105 3.74948 3.35231 3.74902 3.75V20.25C3.74948 20.6477 3.90766 21.029 4.18887 21.3102C4.47007 21.5914 4.85134 21.7495 5.24902 21.75H18.7498C19.1474 21.7495 19.5287 21.5914 19.8099 21.3102C20.0911 21.029 20.2493 20.6477 20.2498 20.25V8.26451C20.2498 8.25961 20.2505 8.2549 20.2505 8.25C20.2506 8.14991 20.2305 8.05083 20.1916 7.95863C20.1526 7.86643 20.0956 7.78299 20.0238 7.71327V7.71327ZM14.9998 16.5H8.99976C8.80084 16.5 8.61008 16.421 8.46943 16.2803C8.32877 16.1397 8.24976 15.9489 8.24976 15.75C8.24976 15.5511 8.32877 15.3603 8.46943 15.2197C8.61008 15.079 8.80084 15 8.99976 15H14.9998C15.1987 15 15.3894 15.079 15.5301 15.2197C15.6707 15.3603 15.7498 15.5511 15.7498 15.75C15.7498 15.9489 15.6707 16.1397 15.5301 16.2803C15.3894 16.421 15.1987 16.5 14.9998 16.5ZM14.9998 13.5H8.99976C8.80084 13.5 8.61008 13.421 8.46943 13.2803C8.32877 13.1397 8.24976 12.9489 8.24976 12.75C8.24976 12.5511 8.32877 12.3603 8.46943 12.2197C8.61008 12.079 8.80084 12 8.99976 12H14.9998C15.1987 12 15.3894 12.079 15.5301 12.2197C15.6707 12.3603 15.7498 12.5511 15.7498 12.75C15.7498 12.9489 15.6707 13.1397 15.5301 13.2803C15.3894 13.421 15.1987 13.5 14.9998 13.5ZM14.2498 8.25V4.06064L18.439 8.25H14.2498Z" fill="#F1F1F1"/>
</svg>
